<svg xmlns="http://www.w3.org/2000/svg" viewBox="-4130.099 21.41 155.099 39.331">
    <defs>
        <style>
            .cls-1{fill:#313133}.cls-2{fill:#d22d1a}
        </style>
    </defs>
    <g id="logo-dxFeed-original" transform="translate(-4130.099 21.41)">
        <g id="Group_104" data-name="Group 104" transform="translate(70.002 8.514)">
            <path id="Path_149" d="M149.828 36.854a4.422 4.422 0 0 1-3.773-1.887 8.549 8.549 0 0 1-1.355-5.176 8.705 8.705 0 0 1 1.4-5.225 4.887 4.887 0 0 1 7.789.1h.145a14.8 14.8 0 0 1-.29-2.709V17.6h3.725v18.964h-2.854l-.726-1.79h-.145a4.342 4.342 0 0 1-3.916 2.08zm1.306-2.951a2.523 2.523 0 0 0 2.08-.822 4.9 4.9 0 0 0 .726-2.806v-.387a5.72 5.72 0 0 0-.677-3.145 2.471 2.471 0 0 0-2.177-.968 2.184 2.184 0 0 0-1.935 1.064 5.928 5.928 0 0 0-.677 3.048 5.386 5.386 0 0 0 .677 3 2.215 2.215 0 0 0 1.983 1.013z" class="cls-1" data-name="Path 149" transform="translate(-144.7 -17.6)"/>
            <path id="Path_150" d="M179.948 35.376l-4.4-6.676h4.209l2.661 4.354 2.661-4.354h4.209l-4.4 6.676 4.644 6.966h-4.209l-2.854-4.693-2.854 4.693H175.4z" class="cls-1" data-name="Path 150" transform="translate(-160.548 -23.33)"/>
            <path id="Path_151" d="M212.825 37.9H209.1V20.1h10.208v3.1h-6.483v4.6h6.047v3.1h-6.047z" class="cls-1" data-name="Path 151" transform="translate(-177.945 -18.891)"/>
            <path id="Path_152" d="M240.566 42.275a7 7 0 0 1-5.128-1.838 6.733 6.733 0 0 1-1.838-5.128 7.8 7.8 0 0 1 1.693-5.322 6.088 6.088 0 0 1 4.741-1.887 5.919 5.919 0 0 1 4.5 1.645 6.28 6.28 0 0 1 1.6 4.547v1.79h-8.8a3.568 3.568 0 0 0 .919 2.467 3.337 3.337 0 0 0 2.467.871 11.791 11.791 0 0 0 2.322-.242 9.261 9.261 0 0 0 2.274-.822v2.854a7.58 7.58 0 0 1-2.08.726 7.117 7.117 0 0 1-2.67.339zm-.532-11.465a2.369 2.369 0 0 0-1.838.726 3.406 3.406 0 0 0-.774 2.129h5.225a2.911 2.911 0 0 0-.726-2.129 2.552 2.552 0 0 0-1.887-.727z" class="cls-1" data-name="Path 152" transform="translate(-190.592 -23.02)"/>
            <path id="Path_153" d="M270.666 42.275a7 7 0 0 1-5.128-1.838 6.733 6.733 0 0 1-1.838-5.128 7.8 7.8 0 0 1 1.693-5.322 6.088 6.088 0 0 1 4.741-1.887 5.919 5.919 0 0 1 4.5 1.645 6.28 6.28 0 0 1 1.6 4.547v1.79h-8.8a3.568 3.568 0 0 0 .919 2.467 3.337 3.337 0 0 0 2.467.871 11.79 11.79 0 0 0 2.322-.242 9.261 9.261 0 0 0 2.274-.822v2.854a7.58 7.58 0 0 1-2.08.726 7.118 7.118 0 0 1-2.67.339zm-.532-11.465a2.369 2.369 0 0 0-1.838.726 3.406 3.406 0 0 0-.774 2.129h5.225a2.911 2.911 0 0 0-.726-2.129 2.478 2.478 0 0 0-1.887-.727z" class="cls-1" data-name="Path 153" transform="translate(-206.131 -23.02)"/>
            <path id="Path_154" d="M299.328 36.854a4.422 4.422 0 0 1-3.773-1.887 8.549 8.549 0 0 1-1.355-5.176 8.7 8.7 0 0 1 1.4-5.225 4.887 4.887 0 0 1 7.789.1h.145a14.807 14.807 0 0 1-.29-2.709V17.6h3.725v18.964h-2.854l-.726-1.79h-.145a4.342 4.342 0 0 1-3.916 2.08zm1.306-2.951a2.523 2.523 0 0 0 2.08-.822 4.9 4.9 0 0 0 .726-2.806v-.387a5.719 5.719 0 0 0-.677-3.145 2.471 2.471 0 0 0-2.177-.968 2.184 2.184 0 0 0-1.935 1.064 5.927 5.927 0 0 0-.677 3.048 5.386 5.386 0 0 0 .677 3 2.215 2.215 0 0 0 1.983 1.013z" class="cls-1" data-name="Path 154" transform="translate(-221.875 -17.6)"/>
        </g>
        <path id="Path_155" d="M91.65 16.3V0H64.8v4.6h15.191L64.8 13.014V16.3h4.354L87.005 6.192V16.3z" class="cls-2" data-name="Path 155" transform="translate(-33.451)"/>
        <path id="Path_156" d="M80.668 53.459H64.8v4.6h26.85V41.8h-4.645v9.676l-.048-.048L69.831 41.8H64.8v2.854z" class="cls-2" data-name="Path 156" transform="translate(-33.451 -21.578)"/>
        <path id="Path_157" d="M0 41.7v4.693h15.723L0 55.149v5.709l22.157-12.385v9.579h4.693V41.7z" class="cls-1" data-name="Path 157" transform="translate(0 -21.527)"/>
        <path id="Path_158" d="M22.947 16.3h4.306v-3.29L12.062 4.6h15.191V0H.5v16.3h4.6V6.241l.1.048z" class="cls-2" data-name="Path 158" transform="translate(-.258)"/>
    </g>
</svg>
